<svg id="Layer_1" data-name="Layer 1" xmlns="http://www.w3.org/2000/svg" width="58" height="13.97695" viewBox="0 0 58 13.97695"><defs><style>.cls-1{fill:#fff;}</style></defs><title>Vecteezy-logo-white</title><path class="cls-1" d="M9.20454,6.61075c.018-.32672.018-.63545.018-.94344,0-.69015-.18135-1.37956-.63545-1.37956-.34471,0-.52455.29-.52455.79881A1.56433,1.56433,0,0,0,9.20454,6.61075ZM7.13483,11.82026c-2.12367,0-2.323-1.90636-2.323-3.86592,0-1.88762-.14537-2.30576-.79881-2.30576H3.0516V4.39641H4.013c1.83367,0,2.06972,1.52493,2.06972,3.55793,0,1.94158.14462,2.595,1.0341,2.595.94419,0,1.59763-1.52419,1.90561-2.75838A2.68265,2.68265,0,0,1,6.79012,5.06783a1.89373,1.89373,0,0,1,1.81494-2.051c1.199,0,1.87339,1.14351,1.87339,2.65046,0,.38068-.018.74411-.036,1.01613H11.858V7.93561H10.23865C9.858,9.842,8.80514,11.82026,7.13483,11.82026Zm-.03672,2.26829c4.90077,0,6.969-3.10382,6.969-6.933,0-5.2822-2.39793-7.04393-5.55421-7.04393C4.44914.1131.12912,3.453.12912,7.157A6.95171,6.95171,0,0,0,7.09811,14.08855Z" transform="translate(-0.12912 -0.1116)"/><path class="cls-1" d="M19.78992,7.74452a5.81751,5.81751,0,0,1,.20607.78233h.03072a7.74452,7.74452,0,0,1,.20608-.77184L21.473,3.7085h1.48072L20.78881,9.9791H19.21516L17.03005,3.71h1.48072Z" transform="translate(-0.12912 -0.1116)"/><path class="cls-1" d="M26.99046,8.4137l.66917.77258a2.589,2.589,0,0,1-2.09069.85426,2.3963,2.3963,0,0,1-2.61525-2.4916,2.35768,2.35768,0,0,1,2.48186-2.4901,2.123,2.123,0,0,1,2.23457,2.29677,2.89434,2.89434,0,0,1-.04121.5148H24.35423A1.28838,1.28838,0,0,0,25.73379,8.972,1.58636,1.58636,0,0,0,26.99046,8.4137ZM24.35423,7.13979h2.02851a.9361.9361,0,0,0-.94719-1.00863A1.07039,1.07039,0,0,0,24.35423,7.1368Z" transform="translate(-0.12912 -0.1116)"/><path class="cls-1" d="M32.90511,6.76662a1.89852,1.89852,0,0,1-.03072.35969l-1.24618.07493a.79977.79977,0,0,0,.021-.21656.74327.74327,0,0,0-.80331-.77259c-.63845,0-1.07083.52455-1.07083,1.30838A1.20138,1.20138,0,0,0,31.031,8.88954a1.69483,1.69483,0,0,0,1.3286-.56577l.69016.885a2.6672,2.6672,0,0,1-2.11093.834,2.38082,2.38082,0,0,1-2.595-2.47287,2.39746,2.39746,0,0,1,2.52308-2.51258C32.15351,5.05884,32.90511,5.81868,32.90511,6.76662Z" transform="translate(-0.12912 -0.1116)"/><path class="cls-1" d="M37.47093,9.69059a2.74051,2.74051,0,0,1-1.45225.34995c-1.2739,0-1.94832-.6894-1.94832-2.06971V6.18961H33.3285V5.11879h.80331V3.71h1.35932V5.11879h1.70928V6.18961h-1.707V7.91313c0,.64894.24729.93669.79282.93669a1.24091,1.24091,0,0,0,.78607-.26078Z" transform="translate(-0.12912 -0.1116)"/><path class="cls-1" d="M41.65082,8.4137l.66693.77258a2.589,2.589,0,0,1-2.0907.85426,2.3963,2.3963,0,0,1-2.61525-2.4916,2.35986,2.35986,0,0,1,2.48411-2.4901,2.123,2.123,0,0,1,2.23458,2.29677,2.94665,2.94665,0,0,1-.04047.5148H39.01534A1.28739,1.28739,0,0,0,40.3949,8.972,1.58336,1.58336,0,0,0,41.65082,8.4137ZM39.01534,7.13979h2.02851a.93625.93625,0,0,0-.94794-1.00863A1.06974,1.06974,0,0,0,39.01534,7.1368Z" transform="translate(-0.12912 -0.1116)"/><path class="cls-1" d="M47.04617,8.4137l.66693.77258a2.589,2.589,0,0,1-2.0907.85426,2.3963,2.3963,0,0,1-2.61525-2.4916,2.35986,2.35986,0,0,1,2.48411-2.4901,2.123,2.123,0,0,1,2.23457,2.29677,2.89434,2.89434,0,0,1-.04121.5148H44.41069A1.28739,1.28739,0,0,0,45.79025,8.972,1.58338,1.58338,0,0,0,47.04617,8.4137ZM44.41069,7.13979h2.0285a.93624.93624,0,0,0-.94793-1.00863A1.06973,1.06973,0,0,0,44.41069,7.1368Z" transform="translate(-0.12912 -0.1116)"/><path class="cls-1" d="M48.30209,8.96,50.6603,6.44739a2.92224,2.92224,0,0,1,.25778-.25778l-.01049-.03072a3.608,3.608,0,0,1-.56651.03072H48.374V5.11879h4.12969V6.13791L50.2609,8.5808c-.16486.18509-.23679.25778-.30873.32972l.02023.03072a2.83961,2.83961,0,0,1,.53579-.03072h2.06972V9.98134H48.30659Z" transform="translate(-0.12912 -0.1116)"/><path class="cls-1" d="M54.08261,12.14173a2.00071,2.00071,0,0,1-.906-.19558l.20608-1.08132a1.38251,1.38251,0,0,0,.58674.14388.85172.85172,0,0,0,.84453-.57625l.09216-.2368L52.89488,5.11879h1.5137l.99889,2.88351a3.6556,3.6556,0,0,1,.15436.6377h.01948a5.33655,5.33655,0,0,1,.15437-.6377l.96966-2.88351h1.42378L56.0594,10.628A2.06024,2.06024,0,0,1,54.08261,12.14173Z" transform="translate(-0.12912 -0.1116)"/></svg>